<?xml version="1.0" encoding="utf-8"?>
<!-- Generator: Adobe Illustrator 27.6.1, SVG Export Plug-In . SVG Version: 6.00 Build 0)  -->
<svg version="1.1" id="Layer_1" xmlns="http://www.w3.org/2000/svg" xmlns:xlink="http://www.w3.org/1999/xlink" x="0px" y="0px"
	 viewBox="0 0 370.5 423.6" style="enable-background:new 0 0 370.5 423.6;" xml:space="preserve">
<style type="text/css">
	.st0{fill:#FF0000;}
	.st1{display:none;}
	.st2{clip-path:url(#SVGID_00000126283495643193967720000003378299459745104814_);}
	.st3{opacity:0.44;clip-path:url(#SVGID_00000124159728659563095730000016177210319058995635_);}
	.st4{opacity:0.54;clip-path:url(#SVGID_00000029766306883747685550000016267516890076972678_);}
	.st5{fill:#ADADAD;stroke:#000000;stroke-width:1.464;stroke-miterlimit:10;}
	.st6{fill:#A7B3C6;stroke:#000000;stroke-width:1.464;stroke-miterlimit:10;}
	.st7{fill:#BCBCBC;stroke:#000000;stroke-width:1.464;stroke-miterlimit:10;}
	.st8{fill:none;stroke:#000000;stroke-width:1.464;stroke-miterlimit:10;}
	.st9{fill:#FFFFFF;stroke:#000000;stroke-width:1.464;stroke-miterlimit:10;}
	.st10{fill:#C1C3C6;stroke:#000000;stroke-width:1.098;stroke-miterlimit:10;}
	.st11{fill:#A7B3C6;stroke:#000000;stroke-width:1.464;stroke-miterlimit:10.0002;}
	.st12{opacity:0.54;clip-path:url(#SVGID_00000099622142355383181750000004235804433302441116_);}
	.st13{fill:#A7B3C6;stroke:#000000;stroke-width:1.4641;stroke-miterlimit:10.0004;}
	.st14{fill:#A7B3C6;stroke:#000000;stroke-width:1.464;stroke-miterlimit:10.0001;}
	.st15{fill:#ADADAD;stroke:#000000;stroke-width:4;stroke-miterlimit:10;}
	.st16{fill:#A7B3C6;stroke:#000000;stroke-width:4;stroke-miterlimit:10;}
	.st17{fill:#BCBCBC;stroke:#000000;stroke-width:4;stroke-miterlimit:10;}
	.st18{fill:none;stroke:#000000;stroke-width:4;stroke-miterlimit:10;}
	.st19{fill:#FFFFFF;stroke:#000000;stroke-width:4;stroke-miterlimit:10;}
	.st20{fill:#C1C3C6;stroke:#000000;stroke-width:3;stroke-miterlimit:10;}
	.st21{fill:#A7B3C6;stroke:#000000;stroke-width:3.9998;stroke-miterlimit:9.9996;}
	.st22{fill:#161616;stroke:#000000;stroke-width:4;stroke-miterlimit:10;}
	.st23{fill:none;}
	.st24{fill:#355F9B;stroke:#000000;stroke-width:3;stroke-miterlimit:10;}
	.st25{opacity:0.5;}
	.st26{fill:#161616;stroke:#000000;stroke-width:3.7099;stroke-miterlimit:10;}
	.st27{fill:#636363;stroke:#000000;stroke-width:5;stroke-miterlimit:10;}
	.st28{fill:#FF000D;stroke:#000000;stroke-width:1.9833;stroke-miterlimit:10;}
	.st29{fill:#09AF28;stroke:#000000;stroke-width:1.9833;stroke-miterlimit:10;}
	.st30{clip-path:url(#SVGID_00000142860580418710456860000001827422154651844775_);}
	.st31{opacity:0.44;clip-path:url(#SVGID_00000052815485715280444890000014502057227077825719_);}
	.st32{opacity:0.54;clip-path:url(#SVGID_00000146486967547255854450000001412282359251621038_);}
	.st33{opacity:0.54;clip-path:url(#SVGID_00000183960859617754169510000015286254242858168214_);}
	.st34{fill:none;stroke:#FFFFFF;stroke-width:2.3794;stroke-miterlimit:10;}
	.st35{fill:none;stroke:#FFFFFF;stroke-width:2.0855;stroke-miterlimit:10;}
	.st36{fill:none;stroke:#000000;stroke-width:5;stroke-linecap:round;stroke-miterlimit:10;}
	.st37{fill:none;stroke:#000000;stroke-width:6;stroke-linecap:round;stroke-miterlimit:10;}
</style>
<g>
	<ellipse class="st15" cx="187.3" cy="268.5" rx="116" ry="114.5"/>
	<ellipse class="st16" cx="187.3" cy="268.5" rx="62.5" ry="60"/>
	<path class="st16" d="M200.4,381.5c14.6,0,28.4-3.6,40.6-9.9l2.3-0.1c-13.1,15.4-27.7,29.5-43.5,42.1c-1.9,1.5-3.9,3.1-6.3,4
		c-5.3,2.1-11.4,0.6-16.1-2.6s-8.3-7.6-11.8-12.1c-7.1-9-14.2-18-21.2-27c9.6,3.6,20,5.5,30.8,5.5L200.4,381.5L200.4,381.5z"/>
	<g>
		<path d="M245.9,369.2c0.4-0.2,0.9-0.5,1.3-0.7c-8.3,9.1-17.1,17.9-25.9,26.6c-2.5,2.5-5,5-7.7,7.2c-3,2.4-6.3,4.5-9.7,6.1l4.3-4.1
			c-2.3,2.1-9,7.4-11.4,9.3l18.2-16c-0.9,0.9-1.8,1.9-2.8,2.8l7.4-7.1l-4.6,4.3l0.1-0.1c-0.3-0.8-0.6-1.5-0.8-2.2
			c1.2-0.9,2.2-2,3.1-3.1c-0.8-0.6-1.3-1.6-1.3-2.6c4.7-2.8,8.9-6.3,12.4-10.4c0.6-0.8,1.2-1.5,2.1-2.1c0.8-0.5,2.4-4.1,3.3-4.4
			c3.5-1.2,5.8-3.5,9-3l0.8,0.9c0.5-0.3,1-0.6,1.5-0.8c0.5-0.4,1-0.8,1.5-1.1L245.9,369.2z"/>
		<g>
			<path d="M246.2,369.5c0,0,0.2-0.2,0.8-0.8l-0.4-0.5c-0.3,0.2-0.7,0.6-1.2,0.9c-0.4,0.4-1.1,0.7-1.8,1.1h0.2
				c-0.2-0.2-0.5-0.5-0.7-0.8c-0.1-0.2-0.3-0.2-0.5-0.2s-0.4,0-0.6,0c-0.8,0-1.6,0.2-2.4,0.6c-1.7,0.7-3.3,1.9-5.5,2.8
				c-0.3,0.1-0.6,0.5-0.8,0.9c-0.2,0.4-0.5,0.8-0.7,1.2s-0.5,0.8-0.7,1.3c-0.3,0.4-0.5,0.9-1,1.3c-0.6,0.4-1.1,1-1.6,1.6
				s-1,1.3-1.6,1.9c-1.1,1.3-2.4,2.6-3.7,3.9c-1.4,1.3-2.9,2.5-4.5,3.7c-0.4,0.3-0.8,0.6-1.2,0.9c-0.3,0.2-0.6,0.4-0.8,0.6
				c-0.1,0-0.1,0.2,0,0.2s0.1,0.2,0.1,0.3l0.1,0.2l0.1,0.1c0.1,0.1,0.1,0.1,0.2,0.2c0.3,0.3,0.7,0.6,1.1,0.9
				c-0.5,0.8-1.5,2.1-1.9,2.5c-0.3,0.3-0.6,0.6-0.9,0.9l-0.3,0.3v0.1l0,0l0,0l0,0v-0.1l-0.2-0.5c0.1,0.2,0.2,0.5,0.3,0.7v-0.1
				l-0.1-0.2v-0.1l0,0l0.1-0.1l0.1-0.1l0.2-0.2c0.3-0.3,0.6-0.6,0.9-0.9c0.6-0.6,1.3-1.2,1.9-1.8l1.7,1.8c-2.3,2.3-4.8,4.7-7.3,7.2
				l-1.9-2c0.8-0.9,1.8-1.8,2.7-2.8l2,2.1c-4.1,3.6-8.4,7.4-12.7,11.3c-1.8,1.6-3.7,3.2-5.5,4.8l-1.9-2.3c3.9-3.2,7.9-6.2,11.4-9.2
				l1.9,2c-1.5,1.4-2.9,2.7-4.4,4.1l-1.5-2.1c3.4-1.6,6.5-3.4,9.2-5.6c2.8-2.1,5.2-4.4,7.6-6.7c4.8-4.5,9.1-8.6,12.8-12.1
				c7.5-7.1,12.5-12.2,14.5-14.1l-0.4-0.5c-1,0.5-1.4,0.7-1.4,0.7s0.4-0.2,1.3-0.8l0.5,0.7c-1.8,2.1-6.5,7.5-13.6,14.9
				c-3.6,3.7-7.7,8-12.3,12.7c-2.3,2.3-4.7,4.8-7.6,7.1c-2.8,2.3-6.1,4.4-9.6,6.1l-1.6-2.3c1.4-1.4,2.8-2.8,4.3-4.2l2,2.1
				c-3.7,3.3-7.5,6.3-11.4,9.4l-1.9-2.3c1.8-1.6,3.6-3.2,5.4-4.8c4.4-3.8,8.7-7.6,12.8-11.2l2,2.1c-1,1-1.9,1.9-2.8,2.8l-2-2.1
				c2.6-2.4,5.1-4.8,7.5-7l1.9,2c-1.6,1.4-3.1,2.8-4.6,4.1l-0.7-0.5l-0.3-0.3l0,0l0,0l-0.2-0.1c-0.3-0.2-0.6-0.4-0.9-0.6
				c-0.2-0.1-0.3-0.2-0.4-0.3c0,0,0,0-0.1,0h0.1l0.2-0.1l0.3-0.1l-0.8-0.6l-0.1-0.1c0,0,0,0,0-0.1v-0.1l-0.1-0.2
				c-0.1-0.2-0.2-0.4-0.2-0.6l0.9-0.7c0.3-0.2,0.6-0.5,0.7-0.6c0.3-0.2,0.5-0.5,0.8-0.7c0.2-0.2,0.3-0.4,0.5-0.5
				c0-0.1,0.1-0.1,0.1-0.2l-0.1-0.1l-0.2-0.3l-0.1-0.2c0-0.1-0.1-0.2-0.1-0.3c-0.2-0.4-0.3-0.9-0.3-1.3c0-0.4-0.2-0.9,0.3-1.1
				l1.1-0.7l0.7-0.4c0.4-0.3,0.8-0.5,1.2-0.8c1.6-1.1,3.1-2.2,4.5-3.4s2.6-2.4,3.8-3.6c0.6-0.6,1.1-1.2,1.6-1.8s1.2-1.3,1.9-1.8
				c0.2-0.1,0.5-0.5,0.7-0.9c0.3-0.4,0.5-0.8,0.8-1.2s0.5-0.8,0.8-1.2c0.2-0.2,0.3-0.4,0.5-0.6c0.2-0.2,0.5-0.4,0.8-0.5
				c2.1-0.7,3.8-1.8,5.6-2.4c0.9-0.3,1.8-0.5,2.7-0.5c0.2,0,0.5,0,0.7,0.1h0.4h0.1l0.1,0.1l0.1,0.1c0.3,0.3,0.5,0.6,0.7,0.9
				l-0.6-0.1c0.7-0.4,1.4-0.7,1.8-1c0.5-0.4,0.9-0.6,1.2-0.9l0.5,0.6C246.4,369.2,246.2,369.5,246.2,369.5z"/>
		</g>
	</g>
	<g>
		<path class="st17" d="M61.4,267.7l-34.2-35.1c-2.8-2.8-2.7-7.4,0.1-10.1L73,178.1c12.5-12.2,32.6-11.9,44.8,0.6l0,0
			c12.2,12.5,11.9,32.6-0.6,44.8l-45.7,44.4C68.7,270.6,64.2,270.6,61.4,267.7z"/>
		<path class="st16" d="M56.8,233c-15.6-14.8-39.2-15.3-52.7-1.1c-2.3,2.4-4.1,5.1-5.5,7.9l10.6,10.1c0.3-0.4,0.6-0.8,1-1.1
			c5.5-5.8,14.7-6.1,20.5-0.6s6.1,14.7,0.6,20.5c-0.3,0.4-0.7,0.7-1.1,1l23,21.8c2.8-1.6,5.3-3.5,7.6-5.9
			C74.2,271.4,72.4,247.8,56.8,233z"/>
		<g>
			<path class="st18" d="M36.5,213.8c4.8,1,13,3.5,19.3,7.3c17.6,10.5,23.9,30.9,25.8,36.8"/>
			<path class="st18" d="M47.3,203.4c4.8,1,13,3.5,19.3,7.3c17.6,10.5,23.9,30.9,25.8,36.8"/>
			<path class="st18" d="M58.2,193c4.8,1,13,3.5,19.3,7.3c17.6,10.5,23.9,30.9,25.8,36.8"/>
			<path class="st18" d="M69.1,182.6c4.8,1,13,3.5,19.3,7.3c17.6,10.5,23.9,30.9,25.8,36.8"/>
			<path class="st18" d="M79.9,172.3c4.8,1,13,3.5,19.3,7.3c17.6,10.5,23.9,30.9,25.8,36.8"/>
		</g>
	</g>
	<g>
		<path class="st17" d="M369.6,247.2l-32,37.2c-2.6,3-7.4,3.1-10.8,0.3l-54.4-45.9c-14.9-12.6-17.8-33.6-6.4-46.9l0,0
			c11.4-13.3,32.8-13.8,47.7-1.2l54.4,45.9C371.5,239.4,372.1,244.2,369.6,247.2z"/>
		<g>
			
				<ellipse transform="matrix(0.6168 -0.7871 0.7871 0.6168 -72.4174 375.6461)" class="st21" cx="349.6" cy="262.2" rx="32" ry="13.4"/>
			<ellipse transform="matrix(0.6168 -0.7871 0.7871 0.6168 -87.9237 372.6659)" cx="338.8" cy="276.6" rx="6" ry="2"/>
			<ellipse transform="matrix(0.6168 -0.7871 0.7871 0.6168 -56.2741 379.4847)" cx="361.6" cy="247.5" rx="6" ry="2"/>
			<ellipse transform="matrix(0.6168 -0.7871 0.7871 0.6168 -70.5436 370.99)" cx="345.8" cy="257.9" rx="6" ry="2"/>
			<ellipse transform="matrix(0.6168 -0.7871 0.7871 0.6168 -71.8829 381.5241)" cx="355.9" cy="264.6" rx="6" ry="2"/>
			<g>
				<path class="st18" d="M312.7,274.1c0.5-4.9,2.3-13.3,5.4-19.9c8.8-18.5,28.6-26.8,34.2-29.1"/>
				<path class="st18" d="M301.4,264.2c0.5-4.9,2.3-13.3,5.4-19.9c8.8-18.5,28.6-26.8,34.2-29.1"/>
				<path class="st18" d="M290,254.4c0.5-4.9,2.3-13.3,5.4-19.9c8.8-18.5,28.6-26.8,34.2-29.1"/>
				<path class="st18" d="M278.7,244.5c0.5-4.9,2.3-13.3,5.4-19.9c8.8-18.5,28.6-26.8,34.2-29.1"/>
				<path class="st18" d="M267.3,234.7c0.5-4.9,2.3-13.3,5.4-19.9c8.8-18.5,28.6-26.8,34.2-29.1"/>
			</g>
		</g>
	</g>
	<path class="st15" d="M221.9,207h-52.2c-48.8,0-88.4-39.6-88.4-88.4V93.4C81.3,44.6,120.9,5,169.7,5h52.2
		c48.8,0,88.4,39.6,88.4,88.4v25.2C310.3,167.4,270.8,207,221.9,207z"/>
	<path class="st19" d="M238.8,137h-81c-20.2,0-36.5-16.3-36.5-36.5l0,0c0-20.2,16.3-36.5,36.5-36.5h81c20.2,0,36.5,16.3,36.5,36.5
		l0,0C275.3,120.7,259,137,238.8,137z"/>
	<path class="st20" d="M80.3,96.4c0-14.6,3.6-28.4,9.9-40.6l0.1-2.4C74.9,66.5,60.8,81.1,48.2,96.9c-1.5,1.9-3.1,3.9-4,6.3
		c-2.1,5.3-0.6,11.4,2.6,16.1s7.7,8.3,12.1,11.8c9,7.1,18,14.1,27,21.2c-3.6-9.6-5.5-20-5.5-30.8L80.3,96.4L80.3,96.4z"/>
	<g>
		<path d="M92.7,50.9c0.2-0.4,0.5-0.9,0.7-1.3c-9.1,8.3-17.9,17.1-26.6,25.9c-2.5,2.5-5,5-7.2,7.7c-2.4,3-4.5,6.3-6.1,9.7l4.1-4.3
			c-2.1,2.3-7.4,9-9.3,11.4l16-18.2c-0.9,0.9-1.9,1.8-2.8,2.8l7.1-7.4l-4.3,4.6l0.1-0.1c0.8,0.3,1.5,0.6,2.2,0.8
			c0.9-1.2,2-2.2,3.2-3.1c0.6,0.8,1.6,1.3,2.6,1.3c2.8-4.7,6.3-8.9,10.4-12.4c0.8-0.6,1.5-1.2,2.1-2.1c0.5-0.8,4.1-2.4,4.4-3.3
			c1.2-3.5,3.5-5.8,3-9l-0.9-0.8c0.3-0.5,0.6-1,0.8-1.5c0.4-0.5,0.8-1,1.1-1.5L92.7,50.9z"/>
		<g>
			<path d="M93,51.2c0,0,0.2-0.3,0.7-0.8L93.2,50c-0.2,0.3-0.5,0.7-0.8,1.2c-0.4,0.5-0.6,1.2-1,1.9l-0.1,0.1l0.1,0.1
				c0.2,0.2,0.5,0.4,0.8,0.6c0.2,0.1,0.2,0.2,0.2,0.4s0,0.3,0,0.5c0,0.8-0.1,1.6-0.4,2.4c-0.6,1.7-1.6,3.5-2.3,5.6
				c-0.1,0.2-0.2,0.4-0.4,0.6c-0.2,0.2-0.3,0.3-0.5,0.5c-0.4,0.3-0.8,0.6-1.2,0.8s-0.8,0.5-1.2,0.8c-0.4,0.3-0.8,0.6-1,0.9
				c-0.4,0.7-1.1,1.3-1.7,1.8s-1.2,1.1-1.8,1.7c-1.2,1.2-2.4,2.5-3.6,3.9S76,76.7,75,78.4c-0.3,0.4-0.5,0.8-0.8,1.2l-0.4,0.7l-0.7,1
				c-0.2,0.5-0.6,0.3-1,0.3s-0.8-0.1-1.2-0.3c-0.2-0.1-0.4-0.2-0.5-0.2l-0.3-0.2c-0.1-0.1-0.1-0.1-0.2-0.2c-0.1,0-0.2,0.1-0.3,0.2
				c-0.2,0.2-0.4,0.4-0.6,0.6c-0.2,0.2-0.5,0.5-0.7,0.8c-0.1,0.1-0.3,0.4-0.6,0.7l-0.6,0.8c-0.2-0.1-0.4-0.1-0.6-0.2l-0.2-0.1h-0.1
				l0,0l-0.1-0.1l-0.6-0.7L65.4,83l-0.1,0.1v0.1l0,0L65,82.8c-0.2-0.3-0.4-0.6-0.6-0.8c0-0.1-0.1-0.2-0.1-0.2v0.1l0,0l-0.2-0.3
				L63.7,81c1.2-1.4,2.6-2.9,4-4.5l1.8,1.7c-2.2,2.4-4.6,4.9-7,7.5l-2-1.9c0.9-0.9,1.8-1.9,2.8-2.8l2.1,2
				c-3.6,4.1-7.3,8.4-11.2,12.8c-1.6,1.8-3.2,3.6-4.8,5.4l-2.3-1.9c3.2-3.9,6.2-7.8,9.5-11.4l2,1.9c-1.4,1.4-2.8,2.9-4.2,4.3
				l-2.1-1.5c1.7-3.5,3.8-6.7,6.2-9.5c2.3-2.8,4.8-5.2,7.2-7.5c4.7-4.5,9-8.6,12.8-12.1c7.6-7,13-11.6,15.1-13.4l-0.5-0.4
				c-0.6,0.9-0.8,1.3-0.8,1.3s0.2-0.4,0.7-1.4l0.7,0.5c-2,1.9-7.1,6.9-14.3,14.2c-3.6,3.7-7.7,7.9-12.3,12.6
				c-2.3,2.4-4.6,4.8-6.8,7.6s-4,5.8-5.6,9.2l-2.3-1.6c1.3-1.4,2.7-2.9,4.1-4.4l2.1,2c-3,3.5-6.1,7.4-9.2,11.4l-2.3-1.9
				c1.6-1.8,3.2-3.6,4.8-5.5c3.9-4.4,7.6-8.6,11.2-12.8l2.1,2c-1,0.9-1.9,1.9-2.8,2.7l-2.1-2c2.5-2.5,4.9-5,7.1-7.4l2,1.9
				c-0.6,0.6-1.2,1.3-1.8,1.9c-0.3,0.3-0.6,0.6-0.9,0.9L66.6,81l-0.1,0.1l0,0l0,0h-0.1c-0.1,0-0.2-0.1-0.3-0.1l-0.2-0.1
				c0.3,0.1,0.5,0.2,0.8,0.3L66.1,81H66l0,0l0,0l0,0c0,0,0,0,0.1,0l0.2-0.2c0.3-0.3,0.6-0.6,0.9-0.9l0.4-0.4l0.3-0.3l0.4-0.3
				c0.5-0.4,1.1-0.8,1.5-1.1c0.3,0.4,0.7,0.8,1,1.2c0.1,0.1,0.2,0.1,0.2,0.2l0.1,0.1l0.2,0.1c0.1,0,0.2,0.1,0.3,0
				c0.2-0.2,0.3-0.5,0.5-0.8c0.3-0.4,0.6-0.9,0.9-1.3c1.2-1.7,2.4-3.2,3.7-4.6c1.3-1.4,2.6-2.7,3.8-3.8c0.6-0.6,1.3-1.1,1.9-1.6
				s1.1-1,1.5-1.5c0.6-0.7,1-0.8,1.4-1.1c0.4-0.2,0.8-0.5,1.3-0.7c0.4-0.2,0.8-0.5,1.1-0.7c0.2-0.1,0.3-0.2,0.4-0.3s0.2-0.2,0.2-0.3
				c0.8-2.2,2-3.9,2.7-5.5c0.3-0.8,0.5-1.5,0.5-2.2c0-0.2,0-0.3,0-0.4c0-0.1,0-0.2-0.1-0.3c-0.2-0.2-0.4-0.4-0.6-0.6l-0.3-0.3
				l0.2-0.3c0.4-0.7,0.7-1.3,1.2-1.9c0.4-0.5,0.7-0.9,0.9-1.2l0.7,0.5C93.2,51,93,51.2,93,51.2z"/>
		</g>
	</g>
	<path class="st20" d="M311.8,98.4c0-14.6-3.6-28.4-9.9-40.6l-0.1-2.4c15.4,13.1,29.5,27.7,42.1,43.5c1.5,1.9,3.1,3.9,4,6.3
		c2.1,5.3,0.6,11.4-2.6,16.1s-7.7,8.3-12.1,11.8c-9,7.1-18,14.1-27,21.2c3.6-9.6,5.5-20,5.5-30.8L311.8,98.4L311.8,98.4z"/>
	<g>
		<path d="M299.5,52.9c-0.2-0.4-0.5-0.9-0.7-1.3c9.1,8.3,17.9,17.1,26.6,25.9c2.5,2.5,5,5,7.2,7.7c2.4,3,4.5,6.3,6.1,9.7l-4.1-4.3
			c2.1,2.3,7.4,9,9.3,11.4l-16-18.2c0.9,0.9,1.9,1.8,2.8,2.8l-7.1-7.4l4.3,4.6l-0.1-0.1c-0.8,0.3-1.5,0.6-2.2,0.8
			c-0.9-1.2-2-2.2-3.2-3.1c-0.6,0.8-1.6,1.3-2.6,1.3c-2.8-4.7-6.3-8.9-10.4-12.4c-0.8-0.6-1.5-1.2-2.1-2.1c-0.5-0.8-4.1-2.4-4.4-3.3
			c-1.2-3.5-3.5-5.8-3-9l0.9-0.8c-0.3-0.5-0.6-1-0.8-1.5c-0.4-0.5-0.8-1-1.1-1.5L299.5,52.9z"/>
		<g>
			<path d="M299.8,52.7c0,0-0.2-0.2-0.8-0.8l-0.5,0.4c0.2,0.3,0.6,0.7,0.9,1.2c0.4,0.4,0.7,1.1,1.2,1.8v-0.2
				c-0.2,0.2-0.5,0.5-0.8,0.7c-0.2,0.1-0.2,0.3-0.2,0.5s0,0.4,0,0.6c0,0.8,0.2,1.6,0.6,2.4c0.7,1.7,1.9,3.4,2.8,5.5
				c0.1,0.3,0.5,0.6,0.8,0.8c0.4,0.2,0.8,0.5,1.2,0.7s0.8,0.5,1.3,0.7c0.4,0.3,0.9,0.5,1.3,1c0.4,0.6,1,1.1,1.6,1.6s1.3,1,1.9,1.6
				c1.3,1.1,2.6,2.4,3.9,3.7c1.3,1.4,2.5,2.9,3.7,4.5c0.3,0.4,0.6,0.8,0.9,1.2c0.2,0.3,0.4,0.6,0.6,0.9c0,0.1,0.2,0.1,0.2,0
				s0.2-0.1,0.3-0.1l0.2-0.1l0.1-0.1c0.1-0.1,0.2-0.1,0.2-0.2c0.3-0.3,0.6-0.7,0.9-1.1c0.8,0.5,2.1,1.5,2.5,1.9
				c0.3,0.3,0.6,0.6,0.9,0.9l0.3,0.3h0.1l0,0l0,0l0,0h-0.1l-0.5,0.2c0.2-0.1,0.5-0.2,0.7-0.3h-0.1l-0.2,0.1h-0.1l0,0l-0.1-0.1
				l-0.1-0.1l-0.2-0.2c-0.3-0.3-0.6-0.6-0.9-0.9c-0.6-0.6-1.2-1.3-1.8-1.9l1.8-1.7c2.3,2.3,4.7,4.8,7.2,7.3l-2,1.9
				c-0.9-0.9-1.8-1.8-2.8-2.7l2.1-2c3.6,4.1,7.4,8.4,11.3,12.7c1.6,1.8,3.2,3.7,4.8,5.5l-2.3,1.9c-3.2-3.9-6.2-7.9-9.2-11.4l2-1.9
				c1.4,1.5,2.7,2.9,4.1,4.4l-2.1,1.5c-1.6-3.4-3.4-6.5-5.6-9.2c-2.1-2.8-4.4-5.2-6.7-7.6c-4.5-4.8-8.6-9.1-12.1-12.8
				c-7.1-7.5-12.2-12.5-14.1-14.5l-0.5,0.4c0.5,1,0.7,1.4,0.7,1.4s-0.2-0.4-0.8-1.3l0.7-0.5c2.1,1.8,7.5,6.5,14.9,13.6
				c3.7,3.6,8,7.7,12.7,12.3c2.3,2.3,4.8,4.7,7.1,7.6c2.3,2.9,4.4,6.1,6.1,9.6l-2.3,1.6c-1.4-1.4-2.8-2.8-4.2-4.3l2.1-2
				c3.3,3.7,6.3,7.5,9.4,11.4l-2.3,1.9c-1.6-1.8-3.2-3.6-4.8-5.4c-3.8-4.4-7.6-8.7-11.2-12.8l2.1-2c1,1,1.9,1.9,2.8,2.8l-2.1,2
				c-2.4-2.6-4.8-5.1-7-7.5l2-1.9c1.4,1.6,2.8,3.1,4.1,4.6l-0.5,0.7l-0.3,0.3l0,0l0,0l-0.1,0.2c-0.2,0.3-0.4,0.6-0.6,0.9
				c-0.1,0.1-0.2,0.3-0.3,0.4c0,0,0,0,0,0.1v-0.1l-0.1-0.2l-0.1-0.3l-0.6,0.8l-0.1,0.1c0,0,0,0-0.1,0h-0.1l-0.2,0.1
				c-0.2,0.1-0.4,0.2-0.7,0.2l-0.7-0.9c-0.2-0.3-0.5-0.6-0.6-0.7c-0.2-0.3-0.5-0.5-0.7-0.8c-0.2-0.2-0.4-0.3-0.5-0.5
				c-0.1,0-0.1-0.1-0.2-0.1l-0.1,0.1l-0.3,0.2l-0.2,0.1c-0.1,0-0.2,0.1-0.3,0.1c-0.4,0.2-0.9,0.3-1.3,0.3c-0.4,0-0.9,0.2-1.1-0.3
				l-0.7-1.1l-0.4-0.7c-0.3-0.4-0.5-0.8-0.8-1.2c-1.1-1.6-2.2-3.1-3.4-4.5c-1.2-1.4-2.4-2.6-3.6-3.8c-0.6-0.6-1.2-1.1-1.8-1.6
				s-1.3-1.1-1.8-1.9c-0.1-0.1-0.5-0.5-0.9-0.7c-0.4-0.3-0.8-0.5-1.2-0.8s-0.8-0.5-1.2-0.8c-0.2-0.1-0.4-0.3-0.6-0.5
				c-0.2-0.2-0.4-0.5-0.5-0.8c-0.7-2.1-1.8-3.8-2.4-5.6c-0.3-0.9-0.5-1.8-0.5-2.7c0-0.2,0-0.5,0.1-0.7v-0.4v-0.1l0.1-0.1l0.1-0.1
				c0.3-0.3,0.6-0.5,0.9-0.7l-0.1,0.6c-0.4-0.7-0.7-1.4-1-1.8c-0.3-0.5-0.6-0.9-0.8-1.2l0.7-0.5C299.6,52.4,299.8,52.7,299.8,52.7z"
				/>
		</g>
	</g>
	<ellipse cx="195.3" cy="165.5" rx="16" ry="21.5"/>
	<path d="M150.5,103c-0.1,0.3-0.1,0.6-0.1,0.9c0,3.3,4.2,6.1,9.5,6.1s9.5-2.7,9.5-6.1c0-0.3-0.1-0.6-0.1-0.9H150.5z"/>
	<path d="M226.5,103c-0.1,0.3-0.1,0.6-0.1,0.9c0,3.3,4.2,6.1,9.5,6.1s9.5-2.7,9.5-6.1c0-0.3-0.1-0.6-0.1-0.9H226.5z"/>
</g>
</svg>
