<?xml version="1.0" encoding="utf-8"?>
<!-- Generator: Adobe Illustrator 27.6.1, SVG Export Plug-In . SVG Version: 6.00 Build 0)  -->
<svg version="1.1" id="Layer_1" xmlns="http://www.w3.org/2000/svg" xmlns:xlink="http://www.w3.org/1999/xlink" x="0px" y="0px"
	 viewBox="0 0 561.6 344.3" style="enable-background:new 0 0 561.6 344.3;" xml:space="preserve">
<style type="text/css">
	.st0{display:none;}
	.st1{clip-path:url(#SVGID_00000051377592581522603410000000691298526821613956_);}
	.st2{opacity:0.44;clip-path:url(#SVGID_00000134970991361331742000000000293686922072700291_);}
	.st3{opacity:0.54;clip-path:url(#SVGID_00000139255004672213890690000018127625009385224882_);}
	.st4{fill:#ADADAD;stroke:#000000;stroke-width:1.464;stroke-miterlimit:10;}
	.st5{fill:#A7B3C6;stroke:#000000;stroke-width:1.464;stroke-miterlimit:10;}
	.st6{fill:#BCBCBC;stroke:#000000;stroke-width:1.464;stroke-miterlimit:10;}
	.st7{fill:none;stroke:#000000;stroke-width:1.464;stroke-miterlimit:10;}
	.st8{fill:#FFFFFF;stroke:#000000;stroke-width:1.464;stroke-miterlimit:10;}
	.st9{fill:#C1C3C6;stroke:#000000;stroke-width:1.098;stroke-miterlimit:10;}
	.st10{fill:#A7B3C6;stroke:#000000;stroke-width:1.464;stroke-miterlimit:10.0002;}
	.st11{opacity:0.54;clip-path:url(#SVGID_00000075148654955398928670000002494880465379920015_);}
	.st12{fill:#A7B3C6;stroke:#000000;stroke-width:1.4641;stroke-miterlimit:10.0004;}
	.st13{fill:#A7B3C6;stroke:#000000;stroke-width:1.464;stroke-miterlimit:10.0001;}
	.st14{fill:#ADADAD;stroke:#000000;stroke-width:4;stroke-miterlimit:10;}
	.st15{fill:#A7B3C6;stroke:#000000;stroke-width:4;stroke-miterlimit:10;}
	.st16{fill:#BCBCBC;stroke:#000000;stroke-width:4;stroke-miterlimit:10;}
	.st17{fill:none;stroke:#000000;stroke-width:4;stroke-miterlimit:10;}
	.st18{fill:#FFFFFF;stroke:#000000;stroke-width:4;stroke-miterlimit:10;}
	.st19{fill:#C1C3C6;stroke:#000000;stroke-width:3;stroke-miterlimit:10;}
	.st20{fill:#A7B3C6;stroke:#000000;stroke-width:3.9998;stroke-miterlimit:9.9996;}
	.st21{fill:#161616;stroke:#000000;stroke-width:4;stroke-miterlimit:10;}
	.st22{fill:none;}
	.st23{fill:none;stroke:#FFFFFF;stroke-width:4;stroke-miterlimit:10;}
	.st24{fill:#FFFFFF;}
	.st25{fill:#355F9B;stroke:#000000;stroke-width:3;stroke-miterlimit:10;}
	.st26{opacity:0.5;}
	.st27{fill:#161616;stroke:#000000;stroke-width:3.7099;stroke-miterlimit:10;}
	.st28{fill:#636363;stroke:#000000;stroke-width:5;stroke-miterlimit:10;}
	.st29{fill:#FF000D;stroke:#000000;stroke-width:1.9833;stroke-miterlimit:10;}
	.st30{fill:#09AF28;stroke:#000000;stroke-width:1.9833;stroke-miterlimit:10;}
	.st31{clip-path:url(#SVGID_00000090277322919578703180000016371460805456504996_);}
	.st32{opacity:0.44;clip-path:url(#SVGID_00000176039091792837265570000008866565283307028408_);}
	.st33{opacity:0.54;clip-path:url(#SVGID_00000088854150641997924080000009174275304706241952_);}
	.st34{opacity:0.54;clip-path:url(#SVGID_00000175321643962264063780000002367319322657220520_);}
	.st35{fill:none;stroke:#FFFFFF;stroke-width:2.3794;stroke-miterlimit:10;}
	.st36{fill:none;stroke:#FFFFFF;stroke-width:2.0855;stroke-miterlimit:10;}
	.st37{fill:none;stroke:#000000;stroke-width:5;stroke-linecap:round;stroke-miterlimit:10;}
	.st38{fill:none;stroke:#000000;stroke-width:6;stroke-linecap:round;stroke-miterlimit:10;}
</style>
<g>
	<path class="st14" d="M45.3,281.8c20.7-8.9,43.5-26.3,88.9-61c47.8-36.5,53.1-45,67.3-43.2c24.5,3.1,32.5,31.3,56.8,28.8
		c11.1-1.1,11.5-7.2,33-15.2c7.6-2.8,25.5-9.5,39.8-8.5c25,1.8,27.7,25.8,61.4,54.2c33.9,28.6,51.8,21.7,92.3,57.6
		c15.5,13.7,31.5,27.9,28,36.8c-4.6,11.6-37.9,3.2-108,0c-31.1-1.4-15.1,0.7-133.4,0c-46.2-0.3-53.2-0.6-75,0
		c-33.5,0.9-43.6,2.5-91.5,5.1c-19.1,1-98.7,5.2-99.1,1.3c-0.3-3.4,58.6-9.3,58.4-17.8c-0.1-7.9-51.4-9.6-52.1-20.3
		C11.8,293.7,27.4,289.5,45.3,281.8z"/>
	<g>
		<path class="st17" d="M237.4,264.1c-1.2,1-33-35-34.3-33.9s28.1,39,26.9,40.1c-1.2,1-33-35-34.3-33.9c-1.2,1,28.1,39,26.9,40.1
			c-1.2,1-33-35-34.3-33.9c-1.2,1,28.1,39,26.9,40.1c-1.2,1-33-35-34.3-33.9c-1.2,1,28.1,39,26.9,40.1c-1.2,1-33-35-34.3-33.9
			c-1.2,1,28.1,39,26.9,40.1c-1.2,1-33-35-34.3-33.9c-1.2,1,28.1,39,26.9,40.1c-1.2,1-33-35-34.3-33.9c-1.2,1,28.1,39,26.9,40.1
			c-1.2,1-33-35-34.3-33.9"/>
	</g>
	
		<ellipse transform="matrix(0.8403 -0.5421 0.5421 0.8403 -25.3086 157.4728)" class="st14" cx="254.6" cy="121.7" rx="114.5" ry="116"/>
	
		<ellipse transform="matrix(0.8403 -0.5421 0.5421 0.8403 -25.3086 157.4728)" class="st15" cx="254.6" cy="121.7" rx="60" ry="62.5"/>
	<g>
		<path class="st15" d="M277.4,231.4c7.7-12.4,11.9-26,13-39.7l1.1-2c6.2,19.2,10.5,39.1,12.9,59.1c0.3,2.4,0.6,4.9,0.1,7.5
			c-1,5.6-5.5,10-10.7,12.3c-5.2,2.3-10.8,3.1-16.5,3.7c-11.4,1.3-22.8,2.6-34.1,3.8c8.1-6.3,15.2-14.1,20.9-23.3L277.4,231.4
			L277.4,231.4z"/>
		<g>
			<path d="M290.9,186.3c0-0.4,0-1,0.1-1.5c3.4,11.8,6.2,24,9,36c0.8,3.4,1.6,6.9,2.1,10.3c0.5,3.8,0.5,7.7,0.1,11.5l-1.2-5.8
				c0.6,3.1,1.6,11.5,1.9,14.6l-4-23.9c0.3,1.2,0.7,2.5,0.9,3.9l-2.1-10l1.2,6.2l0-0.1c-0.8-0.2-1.6-0.3-2.3-0.5
				c-0.1-1.5-0.5-2.9-1-4.3c-0.9,0.4-2,0.3-2.9-0.3c0.1-5.5-0.7-10.9-2.3-16c-0.4-0.9-0.6-1.8-0.7-2.9c0-0.9-2.2-4.2-2-5.1
				c0.8-3.6,0.1-6.8,2.2-9.2l1.2-0.2c0-0.6,0-1.2,0.1-1.7c-0.1-0.6-0.2-1.3-0.1-1.9L290.9,186.3z"/>
			<g>
				<path d="M291.3,186.2c0,0-0.1-0.3-0.3-1.1l-0.6,0.1c0,0.4,0.1,0.9,0.1,1.5c0.1,0.6,0,1.3,0,2.1l0.1-0.2c-0.3,0.1-0.7,0.2-1,0.2
					c-0.2,0-0.3,0.1-0.4,0.3c-0.1,0.2-0.2,0.3-0.3,0.5c-0.4,0.7-0.7,1.5-0.8,2.4c-0.3,1.8-0.1,3.8-0.5,6.2c-0.1,0.3,0.1,0.8,0.3,1.2
					c0.2,0.4,0.4,0.8,0.7,1.2s0.4,0.8,0.7,1.3c0.2,0.5,0.5,0.9,0.6,1.5c0,0.7,0.3,1.5,0.5,2.2s0.6,1.5,0.8,2.4
					c0.5,1.6,0.9,3.4,1.4,5.2c0.4,1.9,0.6,3.8,0.8,5.8c0,0.5,0.1,1,0.1,1.5c0,0.4,0,0.7,0.1,1c-0.1,0.1,0.1,0.2,0.2,0.1
					c0.1-0.1,0.2,0,0.3,0.1l0.2,0l0.1,0c0.1,0,0.1,0,0.3-0.1c0.4-0.1,0.9-0.3,1.3-0.5c0.4,0.8,1,2.4,1.1,2.9
					c0.1,0.4,0.2,0.8,0.3,1.2l0.1,0.4l0.1,0.1l0,0l0,0l0,0l-0.1-0.1l-0.5-0.1c0.2,0,0.5,0.1,0.8,0.1l-0.1-0.1l-0.2,0l-0.1-0.1l0,0
					l0-0.1l0-0.1l-0.1-0.3c-0.1-0.4-0.2-0.8-0.3-1.2c-0.2-0.8-0.3-1.7-0.5-2.6l2.4-0.5c0.7,3.2,1.5,6.6,2.3,10l-2.7,0.6
					c-0.3-1.2-0.6-2.5-1-3.8l2.8-0.6c0.9,5.4,1.9,11,2.9,16.7c0.4,2.4,0.8,4.8,1.2,7.2l-3,0.4c-0.7-5-1.1-10-1.8-14.5l2.7-0.6
					c0.4,2,0.8,3.9,1.2,5.9l-2.6,0.2c0.4-3.7,0.5-7.3,0.1-10.8c-0.3-3.5-1-6.7-1.7-10c-1.3-6.5-2.5-12.3-3.5-17.3
					c-2.1-10.1-3.8-17.1-4.4-19.8l-0.6,0.1c-0.1,1.1-0.1,1.6-0.1,1.6s0-0.4,0-1.5l0.9-0.1c0.8,2.6,3,9.5,5.5,19.4
					c1.2,5,2.7,10.8,4.3,17.1c0.7,3.2,1.6,6.5,2,10.2c0.5,3.6,0.5,7.5,0.1,11.4l-2.8,0.1c-0.5-1.9-0.9-3.9-1.3-5.9l2.8-0.6
					c0.9,4.9,1.4,9.7,2,14.6l-3,0.4c-0.4-2.4-0.8-4.7-1.2-7.1c-0.9-5.7-1.9-11.4-2.8-16.8l2.8-0.6c0.3,1.4,0.6,2.6,0.9,3.9l-2.8,0.6
					c-0.7-3.5-1.4-6.9-2-10.1l2.7-0.6c0.3,2.1,0.7,4.1,1.1,6.1l-0.8,0.3l-0.4,0.1l0,0l0,0l-0.2,0.1c-0.3,0.1-0.7,0.3-1,0.4
					c-0.2,0.1-0.3,0.1-0.5,0.2c0,0,0,0-0.1,0.1l0.1-0.1l0-0.2l0.1-0.3l-0.9,0.4l-0.1,0c0,0,0,0-0.1-0.1l-0.1-0.1l-0.2,0
					c-0.2,0-0.4,0-0.6-0.1l-0.1-1.1c0-0.4-0.1-0.8-0.1-0.9c0-0.4-0.2-0.7-0.2-1c-0.1-0.3-0.2-0.5-0.2-0.7c-0.1-0.1,0-0.1-0.1-0.2
					l-0.1,0l-0.4,0l-0.2,0c-0.1-0.1-0.2,0-0.3-0.1c-0.4,0-0.9-0.2-1.3-0.4c-0.3-0.2-0.9-0.3-0.8-0.8l0-1.3l0-0.8c0-0.5,0-0.9,0-1.4
					c-0.1-1.9-0.2-3.8-0.5-5.6c-0.3-1.8-0.7-3.5-1.1-5.1c-0.2-0.8-0.4-1.6-0.7-2.3s-0.5-1.7-0.5-2.6c0-0.2-0.2-0.7-0.4-1.1
					c-0.2-0.5-0.4-0.8-0.6-1.3c-0.2-0.5-0.4-0.8-0.6-1.3c-0.1-0.3-0.2-0.5-0.2-0.7c-0.1-0.3-0.1-0.6,0-0.9c0.5-2.2,0.5-4.2,0.9-6
					c0.2-0.9,0.5-1.8,1-2.6c0.1-0.2,0.3-0.4,0.5-0.5l0.2-0.3l0.1-0.1l0.1,0l0.1,0c0.4-0.1,0.8-0.1,1.1-0.1l-0.4,0.5
					c0-0.8,0.1-1.6,0.1-2.1c-0.1-0.6,0-1.1-0.1-1.5l0.8-0.1C291.1,185.9,291.3,186.2,291.3,186.2z"/>
			</g>
		</g>
	</g>
	<g>
		<path class="st16" d="M132.3,262.1L98.1,227c-2.8-2.8-2.7-7.4,0.1-10.1l45.7-44.4c12.5-12.2,32.6-11.9,44.8,0.6l0,0
			c12.2,12.5,11.9,32.6-0.6,44.8l-45.7,44.4C139.6,265,135.1,265,132.3,262.1z"/>
		<path class="st15" d="M127.7,227.4c-15.6-14.8-39.2-15.3-52.7-1.1c-2.3,2.4-4.1,5.1-5.5,7.9l10.6,10.1c0.3-0.4,0.6-0.8,1-1.1
			c5.5-5.8,14.7-6.1,20.5-0.6s6.1,14.7,0.6,20.5c-0.3,0.4-0.7,0.7-1.1,1l23,21.8c2.8-1.6,5.3-3.5,7.6-5.9
			C145.1,265.8,143.3,242.2,127.7,227.4z"/>
		<g>
			<path class="st17" d="M107.4,208.2c4.8,1,13,3.5,19.3,7.3c17.6,10.5,23.9,30.9,25.8,36.8"/>
			<path class="st17" d="M118.2,197.8c4.8,1,13,3.5,19.3,7.3c17.6,10.5,23.9,30.9,25.8,36.8"/>
			<path class="st17" d="M129.1,187.4c4.8,1,13,3.5,19.3,7.3c17.6,10.5,23.9,30.9,25.8,36.8"/>
			<path class="st17" d="M140,177c4.8,1,13,3.5,19.3,7.3c17.6,10.5,23.9,30.9,25.8,36.8"/>
			<path class="st17" d="M150.8,166.7c4.8,1,13,3.5,19.3,7.3c17.6,10.5,23.9,30.9,25.8,36.8"/>
		</g>
	</g>
	<path class="st15" d="M438.4,270c-21.4-1.9-40.2,12.4-41.9,31.9c-0.3,3.3,0,6.5,0.6,9.6l14.6,1.3c0-0.5,0-1,0.1-1.5
		c0.7-8,7.7-13.9,15.7-13.2c8,0.7,13.9,7.7,13.2,15.7c0,0.5-0.1,1-0.2,1.5L472,318c1.2-3,2-6,2.3-9.3
		C475.9,289.2,459.8,271.9,438.4,270z"/>
	<g>
		<path class="st16" d="M290.4,263l-32,37.2c-2.6,3-7.4,3.1-10.8,0.3l-54.4-45.9c-14.9-12.6-17.8-33.6-6.4-46.9l0,0
			c11.4-13.3,32.8-13.8,47.7-1.2l54.4,45.9C292.3,255.2,292.9,260,290.4,263z"/>
		<g>
			
				<ellipse transform="matrix(0.6168 -0.7871 0.7871 0.6168 -115.1545 319.3742)" class="st20" cx="270.4" cy="278" rx="32" ry="13.4"/>
			<ellipse transform="matrix(0.6168 -0.7871 0.7871 0.6168 -130.6608 316.394)" cx="259.6" cy="292.4" rx="6" ry="2"/>
			<ellipse transform="matrix(0.6168 -0.7871 0.7871 0.6168 -99.0112 323.2128)" cx="282.5" cy="263.3" rx="6" ry="2"/>
			<ellipse transform="matrix(0.6168 -0.7871 0.7871 0.6168 -113.2807 314.7181)" cx="266.6" cy="273.7" rx="6" ry="2"/>
			<ellipse transform="matrix(0.6168 -0.7871 0.7871 0.6168 -114.62 325.2522)" cx="276.7" cy="280.3" rx="6" ry="2"/>
			<g>
				<path class="st17" d="M233.5,289.9c0.5-4.9,2.3-13.3,5.4-19.9c8.8-18.5,28.6-26.8,34.2-29.1"/>
				<path class="st17" d="M222.2,280c0.5-4.9,2.3-13.3,5.4-19.9c8.8-18.5,28.6-26.8,34.2-29.1"/>
				<path class="st17" d="M210.8,270.2c0.5-4.9,2.3-13.3,5.4-19.9c8.8-18.5,28.6-26.8,34.2-29.1"/>
				<path class="st17" d="M199.5,260.3c0.5-4.9,2.3-13.3,5.4-19.9c8.8-18.5,28.6-26.8,34.2-29.1"/>
				<path class="st17" d="M188.1,250.5c0.5-4.9,2.3-13.3,5.4-19.9c8.8-18.5,28.6-26.8,34.2-29.1"/>
			</g>
		</g>
	</g>
	<g>
		
			<ellipse transform="matrix(0.5071 -0.8619 0.8619 0.5071 -71.2134 460.253)" class="st20" cx="366.8" cy="292.4" rx="9.7" ry="23.1"/>
		<ellipse transform="matrix(0.5071 -0.8619 0.8619 0.5071 -71.3343 447.3173)" cx="355.4" cy="286" rx="1.4" ry="4.3"/>
		<ellipse transform="matrix(0.5071 -0.8619 0.8619 0.5071 -71.6787 473.8394)" cx="378.5" cy="299.6" rx="1.4" ry="4.3"/>
		<ellipse transform="matrix(0.5071 -0.8619 0.8619 0.5071 -67.1705 461.0028)" cx="369.5" cy="289.2" rx="1.4" ry="4.3"/>
		<ellipse transform="matrix(0.5071 -0.8619 0.8619 0.5071 -75.8472 461.6352)" cx="365.7" cy="297.1" rx="1.4" ry="4.3"/>
	</g>
	<path class="st14" d="M414.8,281.2l-51-11.1c-47.7-10.4-77.9-57.5-67.5-105.2l5.4-24.6c10.4-47.7,57.5-77.9,105.2-67.5l51,11.1
		c47.7,10.4,77.9,57.5,67.5,105.2l-5.4,24.6C509.6,261.3,462.6,291.6,414.8,281.2z"/>
	<path class="st18" d="M446.2,216.4l-79.1-17.3c-19.7-4.3-32.2-23.7-27.9-43.4l0,0c4.3-19.7,23.7-32.2,43.4-27.9l79.1,17.3
		c19.7,4.3,32.2,23.7,27.9,43.4l0,0C485.4,208.2,466,220.7,446.2,216.4z"/>
	<path class="st19" d="M300,142.9c3.1-14.3,9.6-27,18.3-37.6l0.6-2.3c-17.8,9.5-34.7,20.8-50.4,33.5c-1.9,1.5-3.9,3.1-5.3,5.3
		c-3.2,4.7-3,11-0.9,16.3s5.8,9.8,9.3,14.1c7.3,8.9,14.6,17.6,21.9,26.5c-1.5-10.1-1.1-20.7,1.2-31.3L300,142.9L300,142.9z"/>
	<g>
		<path d="M321.8,101.1c0.3-0.3,0.7-0.8,1-1.1c-10.7,6.2-21.1,12.9-31.5,19.6c-3,1.9-6,3.8-8.7,6c-3,2.4-5.7,5.2-8,8.2l4.9-3.3
			c-2.5,1.8-9.1,7.2-11.5,9.2l19.5-14.4c-1.1,0.7-2.2,1.4-3.3,2.1l8.5-5.7l-5.2,3.6l0.1-0.1c0.7,0.5,1.3,0.9,2,1.3
			c1.1-1,2.4-1.7,3.8-2.3c0.4,0.9,1.3,1.6,2.3,1.8c3.7-4,8.1-7.4,12.8-9.9c0.9-0.4,1.7-0.9,2.5-1.6c0.7-0.7,4.5-1.5,5-2.3
			c1.9-3.2,4.7-4.9,4.8-8.2l-0.7-1c0.4-0.4,0.8-0.8,1.1-1.3c0.5-0.4,1-0.8,1.4-1.2L321.8,101.1z"/>
		<g>
			<path d="M322.1,101.5c0,0,0.3-0.3,0.9-0.6l-0.4-0.5c-0.3,0.3-0.6,0.6-1,1c-0.5,0.4-0.8,1-1.4,1.6l-0.1,0.1l0.1,0.1
				c0.2,0.2,0.4,0.5,0.7,0.8c0.2,0.1,0.2,0.2,0.1,0.4c0,0.2-0.1,0.3-0.1,0.5c-0.2,0.8-0.4,1.5-0.9,2.3c-0.9,1.5-2.3,3.1-3.4,5
				c-0.1,0.2-0.3,0.3-0.5,0.5c-0.2,0.2-0.4,0.2-0.6,0.4c-0.5,0.2-0.9,0.4-1.3,0.5c-0.4,0.1-0.9,0.3-1.3,0.5
				c-0.5,0.2-0.9,0.4-1.2,0.7c-0.5,0.6-1.4,1-2,1.4c-0.7,0.4-1.4,0.8-2.1,1.3c-1.4,0.9-2.9,1.9-4.3,3c-1.5,1.1-2.9,2.3-4.2,3.8
				c-0.4,0.3-0.7,0.7-1,1l-0.5,0.6l-0.9,0.8c-0.3,0.4-0.7,0.2-1,0.1c-0.4-0.1-0.8-0.3-1.1-0.5c-0.2-0.1-0.3-0.3-0.4-0.3l-0.3-0.3
				c-0.1-0.1-0.1-0.1-0.2-0.2c-0.1,0-0.2,0.1-0.3,0.1c-0.2,0.2-0.5,0.3-0.7,0.5c-0.2,0.2-0.6,0.4-0.9,0.6c-0.1,0.1-0.4,0.3-0.7,0.6
				l-0.8,0.7c-0.2-0.1-0.4-0.2-0.5-0.3l-0.2-0.1l-0.1,0l0,0l-0.1-0.1l-0.4-0.8l-0.2,0.3l-0.1,0.1l0,0.1l0,0l-0.2-0.5
				c-0.1-0.3-0.3-0.7-0.4-0.9c0-0.1-0.1-0.2-0.1-0.2l0,0.1l0,0l-0.1-0.3l-0.3-0.7c1.5-1.1,3.2-2.3,4.9-3.5l1.4,2
				c-2.7,1.9-5.5,3.8-8.4,5.8l-1.5-2.3c1.1-0.7,2.2-1.5,3.3-2.1l1.6,2.4c-4.4,3.2-8.9,6.7-13.7,10.1c-1.9,1.4-3.9,2.8-5.8,4.3
				l-1.8-2.3c4-3.1,7.7-6.3,11.7-9.1l1.5,2.3c-1.7,1.1-3.4,2.2-5,3.3l-1.7-1.9c2.4-3.1,5.1-5.7,8.1-8c2.8-2.2,5.8-4.1,8.6-5.8
				c5.6-3.4,10.6-6.5,15.1-9.1c8.9-5.2,15.2-8.6,17.6-9.9l-0.4-0.5c-0.8,0.8-1.1,1.1-1.1,1.1s0.3-0.3,1-1.2l0.6,0.6
				c-2.4,1.4-8.4,5.2-17,10.8c-4.3,2.8-9.2,6.1-14.7,9.7c-2.8,1.9-5.5,3.7-8.3,6c-2.7,2.3-5.1,4.8-7.4,7.8l-1.9-2.1
				c1.6-1.1,3.3-2.3,4.9-3.4l1.6,2.4c-3.7,2.8-7.5,5.9-11.4,9.2l-1.8-2.3c1.9-1.4,3.9-2.8,5.9-4.4c4.7-3.5,9.3-6.8,13.7-10.1
				l1.6,2.4c-1.2,0.7-2.3,1.5-3.3,2l-1.6-2.4c3-1.9,5.9-3.8,8.5-5.7l1.5,2.3c-0.7,0.5-1.4,1-2.2,1.5c-0.4,0.2-0.7,0.5-1.1,0.7
				l-0.1,0.1l-0.1,0.1l0,0l0,0l-0.1,0c-0.1,0-0.2-0.1-0.3-0.2l-0.2-0.1c0.3,0.2,0.4,0.3,0.7,0.5l-0.5-0.3l-0.1,0l0,0l0,0l0,0
				c0,0,0,0,0.1,0l0.2-0.2c0.4-0.2,0.7-0.5,1.1-0.7l0.5-0.3l0.4-0.2l0.5-0.2c0.6-0.3,1.2-0.5,1.7-0.8c0.2,0.5,0.5,0.9,0.7,1.4
				c0.1,0.1,0.2,0.1,0.2,0.2l0.1,0.1l0.2,0.1c0.1,0,0.2,0.1,0.3,0.1c0.2-0.2,0.4-0.4,0.7-0.7c0.4-0.3,0.8-0.8,1.2-1.1
				c1.5-1.4,3-2.6,4.6-3.7c1.6-1.1,3.1-2.1,4.5-2.9c0.7-0.5,1.5-0.8,2.2-1.2c0.7-0.4,1.3-0.7,1.8-1.1c0.7-0.6,1.1-0.6,1.6-0.8
				c0.4-0.1,0.9-0.3,1.4-0.4c0.4-0.1,0.9-0.3,1.2-0.4c0.2-0.1,0.3-0.1,0.5-0.2c0.1-0.1,0.2-0.2,0.3-0.3c1.3-2,2.8-3.4,3.8-4.8
				c0.5-0.7,0.8-1.4,1-2c0-0.2,0.1-0.3,0.1-0.4c0-0.1,0-0.2,0-0.3c-0.2-0.2-0.3-0.5-0.5-0.7l-0.2-0.4l0.3-0.3c0.5-0.6,1-1.1,1.6-1.6
				c0.5-0.4,0.9-0.7,1.1-1l0.6,0.6C322.3,101.3,322.1,101.5,322.1,101.5z"/>
		</g>
	</g>
	<path class="st19" d="M525.8,194.2c3.1-14.3,2.5-28.5-1-41.8l0.4-2.4c12.3,16.1,22.9,33.4,31.9,51.5c1.1,2.2,2.2,4.5,2.6,7
		c0.9,5.6-1.8,11.3-6,15.2c-4.1,3.9-9.3,6.5-14.3,8.9c-10.3,5-20.6,9.9-30.9,15c5.6-8.6,9.6-18.4,11.9-28.9L525.8,194.2L525.8,194.2
		z"/>
	<g>
		<path d="M523.5,147.2c-0.1-0.4-0.3-1-0.4-1.4c7.1,10,13.8,20.5,20.5,31c1.9,3,3.8,6,5.4,9.1c1.7,3.4,3.1,7.1,3.9,10.8l-3.1-5.1
			c1.6,2.7,5.3,10.4,6.7,13.1l-11.8-21.2c0.7,1.1,1.5,2.2,2.1,3.3l-5.4-8.7l3.2,5.4l-0.1-0.1c-0.8,0.1-1.6,0.3-2.3,0.3
			c-0.6-1.4-1.5-2.6-2.5-3.7c-0.8,0.7-1.8,0.9-2.8,0.7c-1.7-5.2-4.3-10-7.5-14.3c-0.7-0.8-1.2-1.5-1.6-2.5c-0.3-0.9-3.5-3.2-3.6-4.2
			c-0.4-3.7-2.2-6.4-1-9.4l1-0.6c-0.2-0.6-0.4-1.1-0.5-1.6c-0.3-0.6-0.6-1.1-0.8-1.7L523.5,147.2z"/>
		<g>
			<path d="M523.8,147c0,0-0.2-0.2-0.6-1l-0.6,0.3c0.1,0.3,0.4,0.8,0.6,1.4c0.3,0.5,0.4,1.2,0.8,2l0-0.2c-0.2,0.2-0.6,0.4-0.9,0.5
				c-0.2,0.1-0.3,0.3-0.3,0.4c0,0.2-0.1,0.4-0.1,0.6c-0.2,0.8-0.1,1.6,0.1,2.5c0.3,1.8,1.1,3.7,1.6,6c0,0.3,0.4,0.7,0.6,1
				c0.3,0.3,0.7,0.7,1,0.9c0.3,0.3,0.7,0.7,1.1,1c0.3,0.4,0.8,0.7,1.1,1.3c0.3,0.7,0.7,1.3,1.2,1.9c0.5,0.6,1.1,1.3,1.5,2
				c1,1.4,2,2.9,3,4.4c1,1.6,1.8,3.4,2.7,5.2c0.2,0.5,0.4,0.9,0.6,1.4c0.1,0.3,0.3,0.7,0.4,1c0,0.1,0.2,0.1,0.2,0s0.2-0.1,0.3,0
				l0.2-0.1l0.1-0.1c0.1-0.1,0.2-0.1,0.2-0.2c0.4-0.2,0.7-0.6,1.1-0.9c0.7,0.7,1.7,1.9,2,2.4c0.2,0.4,0.5,0.7,0.7,1.1l0.2,0.4l0.1,0
				l0,0l0,0l0,0l-0.1,0l-0.5,0.1c0.2-0.1,0.5-0.1,0.7-0.1l-0.1,0l-0.2,0.1l-0.1,0l0,0l-0.1-0.1l-0.1-0.1l-0.2-0.2
				c-0.2-0.4-0.5-0.7-0.7-1.1c-0.5-0.7-0.9-1.5-1.4-2.2l2.1-1.3c1.8,2.7,3.6,5.7,5.5,8.7l-2.4,1.4c-0.7-1.1-1.4-2.1-2.2-3.2l2.5-1.5
				c2.6,4.8,5.4,9.8,8.3,14.8c1.2,2.1,2.3,4.3,3.5,6.4l-2.7,1.4c-2.3-4.5-4.4-9-6.6-13.1l2.4-1.4c1,1.8,2,3.4,3.1,5.2l-2.4,1
				c-0.8-3.7-1.9-7.1-3.5-10.2c-1.5-3.2-3.2-6-4.9-8.9c-3.4-5.6-6.5-10.7-9.1-15.1c-5.3-8.8-9.3-14.8-10.7-17.2l-0.6,0.3
				c0.3,1.1,0.4,1.5,0.4,1.5s-0.1-0.4-0.5-1.4l0.8-0.3c1.7,2.2,5.9,7.9,11.7,16.5c2.8,4.3,6.2,9.2,9.8,14.7c1.8,2.7,3.7,5.6,5.3,8.9
				c1.6,3.3,3,6.9,3.9,10.7l-2.6,1.1c-1.1-1.7-2.1-3.3-3.2-5.1l2.5-1.5c2.4,4.3,4.6,8.7,6.8,13.1l-2.7,1.4c-1.2-2.1-2.4-4.2-3.5-6.3
				c-2.8-5.1-5.6-10.1-8.2-14.9l2.5-1.5c0.8,1.2,1.5,2.3,2.1,3.3l-2.5,1.5c-1.8-3.1-3.6-6-5.2-8.8l2.4-1.4c1,1.9,2.1,3.6,3,5.4
				l-0.6,0.6l-0.4,0.2l0,0l0,0l-0.1,0.2c-0.3,0.3-0.5,0.5-0.8,0.8c-0.1,0.1-0.3,0.3-0.4,0.3c0,0,0,0,0,0.1l0-0.1l-0.1-0.2l0-0.3
				l-0.8,0.7l-0.1,0.1c0,0,0,0-0.1,0l-0.1,0l-0.2,0.1c-0.2,0.1-0.4,0.1-0.7,0l-0.5-1c-0.1-0.3-0.4-0.7-0.4-0.8
				c-0.1-0.3-0.4-0.6-0.5-0.9c-0.2-0.2-0.3-0.4-0.4-0.6c-0.1,0-0.1-0.1-0.2-0.1l-0.1,0.1l-0.3,0.1l-0.2,0.1c-0.1,0-0.2,0.1-0.3,0
				c-0.4,0.1-0.9,0.1-1.3,0s-0.9,0-1-0.5l-0.4-1.2l-0.2-0.8c-0.2-0.5-0.3-0.9-0.5-1.3c-0.7-1.8-1.5-3.5-2.4-5.1
				c-0.9-1.6-1.8-3.1-2.7-4.5c-0.5-0.7-0.9-1.3-1.4-1.9c-0.5-0.6-1-1.4-1.4-2.2c-0.1-0.1-0.4-0.6-0.7-0.9c-0.3-0.4-0.7-0.7-1-1
				c-0.3-0.4-0.7-0.7-1-1c-0.2-0.1-0.3-0.4-0.5-0.6s-0.3-0.6-0.3-0.9c-0.2-2.2-0.9-4.1-1.2-6c-0.1-0.9-0.1-1.9,0.1-2.7
				c0-0.2,0.1-0.5,0.2-0.7l0.1-0.4l0-0.1l0.1-0.1l0.1-0.1c0.4-0.2,0.7-0.4,1-0.5l-0.2,0.6c-0.2-0.8-0.4-1.5-0.6-2
				c-0.2-0.6-0.4-1-0.5-1.3l0.8-0.3C523.7,146.7,523.8,147,523.8,147z"/>
		</g>
	</g>
</g>
<g>
	<line class="st37" x1="368.2" y1="152" x2="382.3" y2="182.3"/>
	<line class="st37" x1="389.6" y1="156.7" x2="363" y2="176.7"/>
</g>
<g>
	<line class="st38" x1="436" y1="165.5" x2="450.1" y2="195.7"/>
	<line class="st38" x1="457.5" y1="170.1" x2="430.8" y2="190.1"/>
</g>
</svg>
