<?xml version="1.0" encoding="utf-8"?>
<!-- Generator: Adobe Illustrator 27.8.1, SVG Export Plug-In . SVG Version: 6.00 Build 0)  -->
<svg version="1.1" id="Layer_1" xmlns="http://www.w3.org/2000/svg" xmlns:xlink="http://www.w3.org/1999/xlink" x="0px" y="0px"
	 viewBox="0 0 348 416" style="enable-background:new 0 0 348 416;" xml:space="preserve">
<style type="text/css">
	.st0{fill:#593AD8;stroke:#000000;stroke-width:2.6777;stroke-miterlimit:10;}
	.st1{fill:#F41111;stroke:#000000;stroke-width:2.6777;stroke-miterlimit:10;}
	.st2{stroke:#000000;stroke-width:0.691;stroke-miterlimit:10;}
	.st3{fill:#EFABAB;stroke:#000000;stroke-width:2.6777;stroke-miterlimit:10;}
	.st4{fill:none;stroke:#000000;stroke-width:3.5702;stroke-miterlimit:10;}
	.st5{fill:#593AD8;stroke:#000000;stroke-width:2.7067;stroke-miterlimit:10;}
	.st6{fill:#F41111;stroke:#000000;stroke-width:2.7067;stroke-miterlimit:10;}
	.st7{stroke:#000000;stroke-width:0.6985;stroke-miterlimit:10;}
	.st8{fill:#EFABAB;stroke:#000000;stroke-width:2.7067;stroke-miterlimit:10;}
	.st9{fill:none;stroke:#000000;stroke-width:3.6089;stroke-miterlimit:10;}
	.st10{fill:#FFFFFF;stroke:#000000;stroke-width:2.7067;stroke-miterlimit:10;}
	.st11{fill:#355F9B;stroke:#000000;stroke-width:3;stroke-miterlimit:10;}
	.st12{fill:#161616;stroke:#000000;stroke-width:3.7099;stroke-miterlimit:10;}
	.st13{fill:none;}
	.st14{fill:#636363;stroke:#000000;stroke-width:5;stroke-miterlimit:10;}
	.st15{fill:#FF000D;stroke:#000000;stroke-width:1.9833;stroke-miterlimit:10;}
	.st16{fill:#09AF28;stroke:#000000;stroke-width:1.9833;stroke-miterlimit:10;}
	.st17{fill:#ADADAD;stroke:#000000;stroke-width:4;stroke-miterlimit:10;}
	.st18{fill:#A7B3C6;stroke:#000000;stroke-width:4;stroke-miterlimit:10;}
	.st19{fill:#BCBCBC;stroke:#000000;stroke-width:4;stroke-miterlimit:10;}
	.st20{fill:none;stroke:#000000;stroke-width:4;stroke-miterlimit:10;}
	.st21{fill:#FFFFFF;stroke:#000000;stroke-width:4;stroke-miterlimit:10;}
	.st22{fill:#C1C3C6;stroke:#000000;stroke-width:3;stroke-miterlimit:10;}
	.st23{fill:#593AD8;stroke:#000000;stroke-width:2.7286;stroke-miterlimit:10;}
	.st24{fill:#F41111;stroke:#000000;stroke-width:2.7286;stroke-miterlimit:10;}
	.st25{stroke:#000000;stroke-width:0.7042;stroke-miterlimit:10;}
	.st26{fill:#EFABAB;stroke:#000000;stroke-width:2.7286;stroke-miterlimit:10;}
	.st27{fill:#FF0000;stroke:#000000;stroke-width:3.6381;stroke-miterlimit:10;}
	.st28{fill:none;stroke:#000000;stroke-width:3.6381;stroke-miterlimit:10;}
	.st29{fill:#FFFFFF;stroke:#000000;stroke-width:2.7286;stroke-miterlimit:10;}
</style>
<g>
	<path class="st5" d="M238.28,181.19l-138.91,6.22c-5.94,0.27-10.98-4.34-11.25-10.28l-0.25-5.51c-0.27-5.94,4.34-10.98,10.28-11.25
		l138.91-6.22c5.94-0.27,10.98,4.34,11.25,10.28l0.25,5.51C248.83,175.89,244.23,180.93,238.28,181.19z"/>
	<path class="st6" d="M273.78,287.04v-80.67c0-13.67-10.53-24.76-23.52-24.76H85.28c-12.99,0-23.52,11.08-23.52,24.76v81
		c0,7.38,3.13,14.38,8.54,19.08l37.17,32.34c4.22,3.67,9.52,5.68,14.99,5.68h87.35c5.18,0,10.21-1.8,14.32-5.12l40.45-32.67
		C270.38,302,273.78,294.74,273.78,287.04z"/>
	<path class="st6" d="M73.49,301.61c6.35,1.43,17.01,4.68,27.97,12.63c11.81,8.57,18.4,18.56,21.65,24.36
		c-2.51,7.46-6.83,17.52-14.44,27.97C98.07,381.13,85.88,389.82,78,394.54c-13.53-6.62-27.07-13.23-40.6-19.85
		c3.13-8.4,6.72-17.15,10.83-26.16C56.27,330.87,64.94,315.23,73.49,301.61z"/>
	<path class="st6" d="M50.54,288.89l-19.08-6.45c-6.06-2.05-9.31-8.62-7.27-14.68l16.27-48.14c2.05-6.06,8.62-9.31,14.68-7.27
		l19.08,6.45c6.06,2.05,9.31,8.62,7.27,14.68l-16.27,48.14C63.17,287.68,56.6,290.93,50.54,288.89z"/>
	
		<ellipse transform="matrix(0.3201 -0.9474 0.9474 0.3201 -147.6785 203.9944)" class="st5" cx="68.29" cy="204.89" rx="30.22" ry="32.48"/>
	<path class="st5" d="M18.37,307.54c0.48-1.07,3.18-6.77,9.74-9.09c0.5-0.18,8.93-3,15.4,2.35c5.29,4.37,7.01,12.34,3.91,19.42
		c2.51,0.35,9.59,1,15.42-3.36c10.84-8.12,6.4-25.41,6.1-26.51c-3.48-12.8-15.28-20.53-25.58-22.93c-2.8-0.65-19.68-4.2-29.99,7.01
		c-5.64,6.13-10.19,17.63-4.96,25.94C11.23,304.84,15.84,306.74,18.37,307.54z"/>
	<path class="st5" d="M48.58,370.32c-0.85-0.1-1.71-0.07-2.56,0.08c-6.48,1.19-17.5,4.17-28.47,12.41
		c-4.51,3.38-8.11,6.98-10.96,10.35c-3.68,4.36-2.23,11.08,2.95,13.48c3.33,1.54,6.9,2.95,10.72,4.14
		c28.63,8.95,55.44,1.16,71.3-5.62c5.64-2.41,7.11-9.8,2.77-14.14c-0.03-0.03-0.06-0.06-0.09-0.09
		c-7.45-7.44-15.03-12.95-21.75-17.03c-1.09-0.66-2.3-1.09-3.57-1.23L48.58,370.32z"/>
	<path class="st6" d="M264.38,301.61c-6.35,1.43-17.01,4.68-27.97,12.63c-11.81,8.57-18.4,18.56-21.65,24.36
		c2.51,7.46,6.83,17.52,14.44,27.97c10.61,14.57,22.79,23.25,30.68,27.97c13.53-6.62,27.07-13.23,40.6-19.85
		c-3.13-8.4-6.72-17.15-10.83-26.16C281.6,330.87,272.93,315.23,264.38,301.61z"/>
	<path class="st5" d="M289.29,370.32c0.85-0.1,1.71-0.07,2.56,0.08c6.48,1.19,17.5,4.17,28.47,12.41
		c4.51,3.38,8.11,6.98,10.96,10.35c3.68,4.36,2.23,11.08-2.95,13.48c-3.33,1.54-6.9,2.95-10.72,4.14
		c-28.63,8.95-55.44,1.16-71.3-5.62c-5.64-2.41-7.11-9.8-2.77-14.14c0.03-0.03,0.06-0.06,0.09-0.09
		c7.45-7.44,15.03-12.95,21.75-17.03c1.09-0.66,2.3-1.09,3.57-1.23L289.29,370.32z"/>
	<path class="st6" d="M312.92,278.75l-18.15,8.73c-5.77,2.77-12.69,0.35-15.46-5.42l-22.03-45.79c-2.77-5.77-0.35-12.69,5.42-15.46
		l18.15-8.73c5.77-2.77,12.69-0.35,15.46,5.42l22.03,45.79C321.11,269.05,318.68,275.98,312.92,278.75z"/>
	<path class="st5" d="M302.96,314.58c-0.4-1.11-2.46-7.06,0.61-13.31c0.23-0.48,4.28-8.39,12.65-9.09
		c6.84-0.57,13.64,3.92,16.37,11.15c2.04-1.5,7.56-5.99,8.68-13.18c2.07-13.38-13.19-22.64-14.17-23.22
		c-11.44-6.72-25.28-4-34.32,1.49c-2.46,1.49-17.01,10.75-16.54,25.98c0.26,8.33,5.04,19.73,14.59,22.01
		C295.97,317.64,300.6,315.77,302.96,314.58z"/>
	
		<ellipse transform="matrix(0.9012 -0.4335 0.4335 0.9012 -61.5363 135.3961)" class="st5" cx="266.13" cy="202.64" rx="32.48" ry="30.22"/>
	<ellipse class="st5" cx="169.58" cy="265.97" rx="41.05" ry="48.27"/>
	<g>
		<path d="M44.17,78.31c-1.28-6.75-2.49-13.67-3.61-20.75c-2.37-15.01-4.13-29.47-5.41-43.31"/>
		<path d="M44.17,78.31c-5.7-20.85-8.99-42.42-9.02-64.06c2.07,10.61,3.53,21.27,5.08,31.95C41.48,55.65,43.56,68.89,44.17,78.31
			L44.17,78.31z"/>
	</g>
	<circle class="st7" cx="36.5" cy="15.6" r="10.83"/>
	<g>
		<path d="M289.15,75.13c0.16-6.87,0.22-13.89,0.17-21.06c-0.12-15.19-0.74-29.75-1.74-43.61"/>
		<path d="M289.15,75.13c-0.94-9.34-1.06-22.83-1.37-32.32c-0.21-10.79-0.52-21.54-0.21-32.35
			C291.08,31.81,291.36,53.63,289.15,75.13L289.15,75.13z"/>
	</g>
	<circle class="st7" cx="286.46" cy="12.02" r="10.83"/>
	<path class="st6" d="M47.17,130.98l-3.18,0.14c-5.84,0.26-10.79-4.26-11.05-10.1l-1.88-41.94c-0.26-5.84,4.26-10.79,10.1-11.05
		l3.18-0.14c5.84-0.26,10.79,4.26,11.05,10.1l1.88,41.94C57.53,125.78,53.01,130.72,47.17,130.98z"/>
	<path class="st6" d="M289.23,125.6l-1.91,0.09c-6.19,0.28-11.44-4.52-11.72-10.71l-1.82-40.66c-0.28-6.19,4.52-11.44,10.71-11.72
		l1.91-0.09c6.19-0.28,11.44,4.52,11.72,10.71l1.82,40.66C300.22,120.08,295.43,125.32,289.23,125.6z"/>
	<path class="st8" d="M260.55,162.18l-180.28,8.08c-14.93,0.67-27.57-10.89-28.24-25.82l-4.12-91.89
		C47.24,37.62,58.8,24.97,73.73,24.31l180.28-8.08c14.93-0.67,27.57,10.89,28.24,25.82l4.12,91.89
		C287.04,148.86,275.48,161.51,260.55,162.18z"/>
	<path class="st6" d="M178.99,146.34l-23.43,1.05c-4.98,0.22-9.19-3.63-9.42-8.61v0c-0.22-4.98,3.63-9.19,8.61-9.42l23.43-1.05
		c4.98-0.22,9.19,3.63,9.42,8.61v0C187.82,141.9,183.97,146.12,178.99,146.34z"/>
	<line class="st9" x1="167.77" y1="164.92" x2="167.77" y2="146.88"/>
	<path class="st10" d="M234.79,115.26L93.29,121.6c-15.18,0.68-28.04-11.08-28.72-26.26l0,0C63.88,80.16,75.64,67.3,90.82,66.62
		l141.51-6.34c15.18-0.68,28.04,11.08,28.72,26.26v0C261.73,101.72,249.98,114.58,234.79,115.26z"/>
	<circle cx="104.16" cy="98.61" r="4.96"/>
	<circle cx="220.55" cy="93.19" r="4.96"/>
</g>
</svg>
